#!OML:ASF F:\VICON\USERDATA\INSTALL\rory3\rory3.ASF
:FULLY-SPECIFIED
:DEGREES
1
root 0.923313 17.8466 -14.7891 7.0385 -4.85064 0.514494
lowerback 6.06933 0.0996263 -2.07897
upperback -0.347815 0.0645067 2.1968
thorax -3.77145 0.0948716 3.43953
lowerneck -17.0803 -2.79821 -9.44119
upperneck 26.4351 -2.3793 4.16735
head 11.6467 -1.50188 2.791
rclavicle -1.13307e-014 -1.35174e-014
rhumerus -34.7486 -9.95203 -79.2405
rradius 35.153
rwrist 3.35869
rhand -7.88193 15.2458
rfingers 7.12502
rthumb 18.0224 -13.9392
lclavicle -1.13307e-014 -1.35174e-014
lhumerus -35.3762 10.7554 82.9214
lradius 31.7589
lwrist -4.58971
lhand -16.6441 24.3412
lfingers 7.12502
lthumb 9.57874 54.1034
rfemur -11.1828 6.69662 22.1796
rtibia 20.7141
rfoot -11.1645 -6.39526
rtoes 6.21676
lfemur -10.9315 -1.86294 -22.6961
ltibia 19.3772
lfoot -11.7973 5.30688
ltoes 1.39227
2
root 0.921646 17.8507 -14.7956 7.1734 -4.65946 0.659492
lowerback 6.00909 0.0241245 -2.22676
upperback -0.419601 -0.0465275 2.17335
thorax -3.8037 0.0439041 3.50909
lowerneck -16.8493 -2.76111 -9.49111
upperneck 26.3567 -2.3558 4.23856
head 11.5695 -1.48791 2.82888
rclavicle 5.46658e-015 8.74653e-015
rhumerus -34.8009 -10.0135 -79.1993
rradius 35.1117
rwrist 3.46207
rhand -7.89016 15.5091
rfingers 7.12502
rthumb 18.0145 -13.6766
lclavicle 5.46658e-015 8.74653e-015
lhumerus -35.4968 10.7153 82.9334
lradius 31.8655
lwrist -4.53434
lhand -16.7723 24.2702
lfingers 7.12502
lthumb 9.455 54.0381
rfemur -11.431 6.53111 22.0311
rtibia 20.8503
rfoot -11.2048 -6.46834
rtoes 6.11566
lfemur -11.0377 -1.88253 -22.8222
ltibia 19.2184
lfoot -11.6349 4.99801
ltoes 2.12272
3
root 0.9163 17.8549 -14.8063 7.44107 -4.3024 0.761947
lowerback 5.92963 -0.102889 -2.39035
upperback -0.579341 -0.224207 2.21335
thorax -3.91055 -0.0365132 3.66044
lowerneck -16.7325 -2.75441 -9.65533
upperneck 26.4455 -2.346 4.35662
head 11.5836 -1.48825 2.90442
rclavicle 4.67144e-015 2.46493e-014
rhumerus -34.9157 -10.074 -79.089
rradius 35.0518
rwrist 3.57136
rhand -7.92808 15.7207
rfingers 7.12502
rthumb 17.978 -13.4684
lclavicle 4.67144e-015 2.46493e-014
lhumerus -35.6315 10.7417 82.9613
lradius 31.8709
lwrist -4.41294
lhand -16.8709 24.3199
lfingers 7.12502
lthumb 9.35994 54.092
rfemur -11.7601 6.42427 21.9431
rtibia 20.9041
rfoot -11.2186 -6.71847
rtoes 6.16161
lfemur -11.3952 -1.9464 -22.8634
ltibia 19.1519
lfoot -11.4727 4.63349
ltoes 2.54599
4
root 0.913526 17.8565 -14.8108 7.63687 -4.11145 0.75502
lowerback 5.90474 -0.145102 -2.38849
upperback -0.693462 -0.279131 2.22035
thorax -4.01063 -0.0603542 3.67258
lowerneck -16.8337 -2.79825 -9.71811
upperneck 26.6779 -2.40514 4.43274
head 11.7005 -1.5156 2.93919
rclavicle 4.47266e-015 2.14687e-014
rhumerus -35.0556 -10.1929 -79.0223
rradius 35.1251
rwrist 3.71408
rhand -8.14493 16.1827
rfingers 7.12502
rthumb 17.7694 -13.0254
lclavicle 4.47266e-015 2.14687e-014
lhumerus -35.6786 10.7946 82.9014
lradius 31.6343
lwrist -4.22821
lhand -17.5152 23.079
lfingers 7.12502
lthumb 8.73824 52.8781
rfemur -11.9895 6.3815 21.9656
rtibia 20.9466
rfoot -11.1722 -6.87296
rtoes 6.17671
lfemur -11.6207 -1.99477 -22.8056
ltibia 19.1033
lfoot -11.4823 4.49592
ltoes 1.91527
5
root 0.912847 17.8577 -14.8118 7.63929 -4.10176 0.746677
lowerback 6.00393 -0.100232 -2.36512
upperback -0.664272 -0.220543 2.18558
thorax -4.04115 -0.0320036 3.61841
lowerneck -17.0821 -2.90464 -9.71199
upperneck 26.8524 -2.54019 4.45109
head 11.8301 -1.57437 2.92744
rclavicle -2.5842e-015 3.18055e-015
rhumerus -35.0476 -10.3307 -79.024
rradius 35.2531
rwrist 3.8486
rhand -8.62391 17.1031
rfingers 7.12502
rthumb 17.3084 -12.1462
lclavicle -2.5842e-015 3.18055e-015
lhumerus -35.5652 10.6783 82.891
lradius 31.4682
lwrist -4.12179
lhand -17.9758 21.8845
lfingers 7.12502
lthumb 8.29366 51.7017
rfemur -12.0057 6.40946 21.9763
rtibia 20.9766
rfoot -11.169 -6.88713
rtoes 6.48641
lfemur -11.5975 -2.03594 -22.7815
ltibia 19.08
lfoot -11.5634 4.57656
ltoes 1.33479
6
root 0.912619 17.8591 -14.8117 7.58902 -4.15549 0.757305
lowerback 6.026 -0.0568577 -2.39046
upperback -0.5774 -0.166439 2.15693
thorax -3.96764 -0.00739544 3.59724
lowerneck -17.1292 -2.93566 -9.6243
upperneck 26.8567 -2.58794 4.39023
head 11.8431 -1.594 2.88215
rclavicle 3.97569e-015 -1.27222e-014
rhumerus -34.9876 -10.366 -79.0633
rradius 35.3695
rwrist 3.88128
rhand -8.79626 17.4159
rfingers 7.12502
rthumb 17.1426 -11.8478
lclavicle 3.97569e-015 -1.27222e-014
lhumerus -35.3718 10.5773 82.9197
lradius 31.5196
lwrist -4.40469
lhand -17.5286 22.3283
lfingers 7.12502
lthumb 8.72529 52.1279
rfemur -11.9596 6.53129 21.9609
rtibia 21.0077
rfoot -11.2315 -6.94045
rtoes 6.80647
lfemur -11.5493 -1.94317 -22.8082
ltibia 19.0817
lfoot -11.5633 4.59315
ltoes 1.51854
7
root 0.912548 17.8576 -14.813 7.58379 -4.17075 0.818282
lowerback 6.05523 -0.0821313 -2.49816
upperback -0.611332 -0.208001 2.16772
thorax -4.01586 -0.0242106 3.67402
lowerneck -16.9502 -2.8575 -9.56494
upperneck 26.8321 -2.48696 4.30101
head 11.7868 -1.55532 2.85379
rclavicle 1.19271e-014 2.38542e-015
rhumerus -34.9913 -10.2273 -79.0569
rradius 35.3248
rwrist 3.876
rhand -8.67132 17.2584
rfingers 7.12502
rthumb 17.2628 -11.9949
lclavicle 1.19271e-014 2.38542e-015
lhumerus -35.4162 10.5879 82.9346
lradius 31.5999
lwrist -4.38044
lhand -17.4254 23.2189
lfingers 7.12502
lthumb 8.82487 53.0144
rfemur -11.9622 6.52129 21.8867
rtibia 21.0083
rfoot -11.2207 -6.90243
rtoes 6.7595
lfemur -11.5806 -1.94231 -22.8809
ltibia 19.1125
lfoot -11.5523 4.55948
ltoes 1.98436
8
root 0.912378 17.8551 -14.8133 7.57075 -4.226 0.813177
lowerback 6.17508 -0.0722787 -2.51848
upperback -0.691754 -0.197947 2.17008
thorax -4.16797 -0.0147408 3.68907
lowerneck -16.799 -2.82599 -9.55217
upperneck 26.8827 -2.45624 4.27696
head 11.7729 -1.5459 2.84855
rclavicle 4.17448e-015 -2.46493e-014
rhumerus -35.0814 -10.1388 -79.0631
rradius 35.2307
rwrist 3.82322
rhand -8.73234 17.2712
rfingers 7.12502
rthumb 17.2041 -11.9872
lclavicle 4.17448e-015 -2.46493e-014
lhumerus -35.5432 10.5385 82.909
lradius 31.4837
lwrist -4.22766
lhand -17.7421 23.0445
lfingers 7.12502
lthumb 8.51924 52.8526
rfemur -11.9442 6.49779 21.8868
rtibia 20.9641
rfoot -11.2244 -6.80348
rtoes 6.63751
lfemur -11.6048 -1.98469 -22.876
ltibia 19.1777
lfoot -11.5901 4.62952
ltoes 2.19898
9
root 0.914462 17.8566 -14.8103 7.61614 -4.30277 0.747619
lowerback 6.0524 -0.00530854 -2.37498
upperback -0.550008 -0.0989974 2.10771
thorax -3.95947 0.0247244 3.53082
lowerneck -17.1182 -2.88525 -9.4799
upperneck 26.9338 -2.53739 4.3066
head 11.8627 -1.5688 2.83531
rclavicle 1.64991e-014 4.77083e-015
rhumerus -34.8419 -10.3934 -79.1399
rradius 35.1354
rwrist 3.66099
rhand -8.49811 16.8383
rfingers 7.12502
rthumb 17.4295 -12.4002
lclavicle 1.64991e-014 4.77083e-015
lhumerus -35.2238 10.4691 82.8334
lradius 31.5639
lwrist -5.08246
lhand -16.6159 24.1077
lfingers 7.12502
lthumb 9.60591 53.8687
rfemur -11.9803 6.52531 21.9424
rtibia 20.9306
rfoot -11.1945 -6.76499
rtoes 6.39816
lfemur -11.6512 -2.00452 -22.8179
ltibia 19.2386
lfoot -11.6619 4.73839
ltoes 2.17652
10
root 0.915178 17.8598 -14.8102 7.66792 -4.30686 0.621464
lowerback 5.89216 0.00412643 -2.22071
upperback -0.374694 -0.073583 2.11485
thorax -3.6891 0.027245 3.4459
lowerneck -17.4106 -2.94181 -9.43901
upperneck 26.9028 -2.59228 4.28602
head 11.9134 -1.58815 2.81068
rclavicle 3.57812e-015 -5.56597e-015
rhumerus -34.5086 -10.5936 -79.1937
rradius 35.0065
rwrist 3.53747
rhand -8.06492 15.8943
rfingers 7.12502
rthumb 17.8464 -13.3068
lclavicle 3.57812e-015 -5.56597e-015
lhumerus -34.8914 10.4953 82.7883
lradius 31.7889
lwrist -5.92334
lhand -15.1326 25.6166
lfingers 7.12502
lthumb 11.0369 55.3064
rfemur -12.02 6.55103 22.0755
rtibia 20.9015
rfoot -11.128 -6.76917
rtoes 5.9864
lfemur -11.7119 -2.01861 -22.6742
ltibia 19.3104
lfoot -11.6794 4.75139
ltoes 2.38009
11
root 0.914464 17.8579 -14.8118 7.67981 -4.30236 0.562556
lowerback 5.91902 -0.0315307 -2.2255
upperback -0.373812 -0.119456 2.1804
thorax -3.69977 0.00532161 3.52125
lowerneck -17.3447 -2.94598 -9.54033
upperneck 26.8602 -2.5806 4.3093
head 11.885 -1.59027 2.83783
rclavicle -2.28602e-015 3.10104e-014
rhumerus -34.4763 -10.4367 -79.1945
rradius 34.9435
rwrist 3.48188
rhand -7.98088 15.6593
rfingers 7.12502
rthumb 17.9272 -13.5345
lclavicle -2.28602e-015 3.10104e-014
lhumerus -34.8979 10.4887 82.8921
lradius 31.6454
lwrist -5.03766
lhand -16.5833 24.5813
lfingers 7.12502
lthumb 9.63739 54.3409
rfemur -12.004 6.55959 22.1457
rtibia 20.8488
rfoot -11.0838 -6.76091
rtoes 6.1522
lfemur -11.8002 -1.99535 -22.6054
ltibia 19.4175
lfoot -11.6959 4.77167
ltoes 2.19952
